#!OML:ASF H:\LiuWeirdWalks\Patient Classification 1\Patient 1\Session 1\male.ASF
:FULLY-SPECIFIED
:DEGREES
503
root 1.39313 18.1605 16.9091 5.48673 -5.94674e-005 3.23113
lowerback 4.54726 -9.98439 -7.77729
upperback -1.05285 -13.6898 6.20891
thorax -0.267342 -6.89746 11.1277
lowerneck -10.8501 2.76352 7.14427
upperneck 10.7446 3.59714 -7.97299
head 5.28512 1.51564 -3.38934
rclavicle -2.20651e-014 -2.70347e-014
rhumerus -61.8387 -10.2356 -26.5312
rradius 28.9304
rwrist -0.517382
rhand -13.7788 7.06571
rfingers 7.12502
rthumb 12.3423 -22.55
lclavicle -2.20651e-014 -2.70347e-014
lhumerus 9.29662 -11.0294 90.2658
lradius 50.0122
lwrist 21.718
lhand -17.6369 -9.23862
lfingers 7.12502
lthumb 8.62072 20.5654
rfemur -27.9158 -6.82621 19.0109
rtibia 30.1006
rfoot -1.64513 -11.6323
rtoes -2.87958
lfemur 10.1329 2.5526 -24.3881
ltibia 33.7426
lfoot 17.6198 15.0067
ltoes -10.7455
504
root 1.36384 18.1957 17.0704 5.4347 0.178499 2.89551
lowerback 4.49998 -9.91289 -7.41865
upperback -1.06666 -13.5682 6.2377
thorax -0.360518 -6.83024 10.9692
lowerneck -10.8589 2.74244 7.12465
upperneck 10.9814 3.58078 -7.95378
head 5.35794 1.50641 -3.38278
rclavicle 1.07145e-013 1.11319e-014
rhumerus -61.8656 -10.303 -27.5011
rradius 28.4738
rwrist -0.310243
rhand -13.4717 7.11203
rfingers 7.12502
rthumb 12.6384 -22.4856
lclavicle 1.07145e-013 1.11319e-014
lhumerus 8.7283 -12.0762 90.4349
lradius 50.0849
lwrist 21.0742
lhand -17.2532 -9.37898
lfingers 7.12502
lthumb 8.99099 20.4094
rfemur -26.9467 -6.64195 19.395
rtibia 29.6244
rfoot -1.8009 -12.1043
rtoes -2.80668
lfemur 9.11872 3.01842 -23.7694
ltibia 35.6726
lfoot 17.0626 15.7202
ltoes -10.542
505
root 1.33465 18.2288 17.2298 5.39412 0.380882 2.54686
lowerback 4.44188 -9.86213 -7.0348
upperback -1.09605 -13.4725 6.25006
thorax -0.466631 -6.77473 10.7775
lowerneck -10.8184 2.74202 7.17266
upperneck 11.2166 3.58858 -7.96756
head 5.42567 1.51065 -3.39627
rclavicle 6.95746e-014 2.54444e-014
rhumerus -61.8253 -10.3449 -28.644
rradius 28.0234
rwrist -0.0277483
rhand -13.2552 7.13404
rfingers 7.12502
rthumb 12.8472 -22.4506
lclavicle 6.95746e-014 2.54444e-014
lhumerus 8.04277 -13.1315 90.5364
lradius 50.1915
lwrist 20.468
lhand -16.9431 -9.52727
lfingers 7.12502
lthumb 9.29027 20.248
rfemur -25.9908 -6.47804 19.8013
rtibia 29.1305
rfoot -1.9849 -12.5838
rtoes -2.78835
lfemur 8.08662 3.45281 -23.1308
ltibia 37.5081
lfoot 16.1491 16.4324
ltoes -10.473
506
root 1.30498 18.2593 17.3875 5.35597 0.606656 2.19429
lowerback 4.37266 -9.79384 -6.63217
upperback -1.1479 -13.3518 6.26627
thorax -0.598067 -6.70479 10.5817
lowerneck -10.7318 2.71849 7.14663
upperneck 11.4488 3.57702 -7.96211
head 5.48149 1.50452 -3.39337
rclavicle 4.73108e-014 -1.59028e-015
rhumerus -61.7913 -10.3268 -29.9117
rradius 27.6333
rwrist 0.0794052
rhand -13.1221 7.09542
rfingers 7.12502
rthumb 12.9755 -22.4811
lclavicle 4.73108e-014 -1.59028e-015
lhumerus 7.25946 -14.2627 90.6797
lradius 50.3167
lwrist 19.9046
lhand -16.6961 -9.65123
lfingers 7.12502
lthumb 9.52861 20.1133
rfemur -25.0474 -6.29753 20.2126
rtibia 28.6421
rfoot -2.18865 -13.101
rtoes -2.81061
lfemur 7.04333 3.85238 -22.4785
ltibia 39.2432
lfoot 14.915 17.0707
ltoes -10.5736
507
root 1.2756 18.2867 17.5424 5.32738 0.850105 1.89096
lowerback 4.32192 -9.74429 -6.28698
upperback -1.21078 -13.2607 6.26642
thorax -0.734206 -6.64943 10.4023
lowerneck -10.6464 2.72502 7.17348
upperneck 11.687 3.60163 -7.98374
head 5.54373 1.5164 -3.40491
rclavicle 6.87795e-014 -1.11319e-014
rhumerus -61.6573 -10.3028 -31.3235
rradius 27.247
rwrist 0.217307
rhand -13.0991 7.05754
rfingers 7.12502
rthumb 12.9977 -22.5176
lclavicle 6.87795e-014 -1.11319e-014
lhumerus 6.39039 -15.3634 90.7855
lradius 50.4826
lwrist 19.4159
lhand -16.5207 -9.73398
lfingers 7.12502
lthumb 9.69779 20.0228
rfemur -24.1428 -6.11062 20.5706
rtibia 28.1821
rfoot -2.39617 -13.6387
rtoes -2.87533
lfemur 5.97277 4.19975 -21.8869
ltibia 40.8709
lfoot 13.5114 17.5795
ltoes -10.7038
508
root 1.24504 18.3109 17.6948 5.30176 1.0989 1.61471
lowerback 4.26101 -9.64257 -5.95841
upperback -1.28854 -13.1002 6.26958
thorax -0.889855 -6.55787 10.2376
lowerneck -10.569 2.67996 7.07677
upperneck 11.9229 3.5691 -7.95852
head 5.59906 1.49794 -3.38584
rclavicle -4.49253e-014 -2.22639e-014
rhumerus -61.5767 -10.3611 -32.6679
rradius 26.8846
rwrist 0.212466
rhand -13.0558 7.1353
rfingers 7.12502
rthumb 13.0394 -22.4371
lclavicle -4.49253e-014 -2.22639e-014
lhumerus 5.46201 -16.5901 90.9985
lradius 50.664
lwrist 19.0178
lhand -16.4081 -9.77625
lfingers 7.12502
lthumb 9.80648 19.9754
rfemur -23.2779 -5.84172 20.8977
rtibia 27.773
rfoot -2.60345 -14.2514
rtoes -2.9746
lfemur 4.88322 4.50414 -21.3253
ltibia 42.3844
lfoot 12.0281 17.9315
ltoes -10.9627
